<svg width="122" height="63" viewBox="0 0 122 63" fill="none" xmlns="http://www.w3.org/2000/svg">
<rect x="1" y="1" width="120" height="61" rx="30.5" fill="white" stroke="black" stroke-width="2"/>
<path d="M27.5864 41L35.8104 17.16H41.4424L49.6664 41H44.9304L43.2344 35.88H34.0184L32.2904 41H27.5864ZM35.2664 32.04H41.9864L38.0184 20.168H39.2344L35.2664 32.04ZM53.4546 48.072C52.9853 48.072 52.5266 48.0293 52.0786 47.944C51.6306 47.88 51.2253 47.7627 50.8626 47.592V44.072C51.14 44.136 51.4706 44.2 51.8546 44.264C52.26 44.328 52.6333 44.36 52.9746 44.36C53.9346 44.36 54.628 44.136 55.0546 43.688C55.5026 43.24 55.8973 42.6533 56.2386 41.928L57.3906 39.24L57.3266 42.76L49.7426 23.592H54.2546L59.5666 37.736H57.9666L63.2466 23.592H67.7906L60.2066 42.76C59.7586 43.8907 59.2146 44.8507 58.5746 45.64C57.9346 46.4293 57.188 47.0267 56.3346 47.432C55.5026 47.8587 54.5426 48.072 53.4546 48.072ZM70.0926 41V16.776H74.2846V41H70.0926ZM83.4351 41.384C82.2191 41.384 81.1631 41.1813 80.2671 40.776C79.3711 40.3707 78.6778 39.7947 78.1871 39.048C77.6965 38.28 77.4511 37.3947 77.4511 36.392C77.4511 35.432 77.6645 34.5787 78.0911 33.832C78.5178 33.064 79.1791 32.424 80.0751 31.912C80.9711 31.4 82.1018 31.0373 83.4671 30.824L89.1631 29.896V33.096L84.2671 33.928C83.4351 34.0773 82.8165 34.344 82.4111 34.728C82.0058 35.112 81.8031 35.6133 81.8031 36.232C81.8031 36.8293 82.0271 37.3093 82.4751 37.672C82.9445 38.0133 83.5205 38.184 84.2031 38.184C85.0778 38.184 85.8458 38.0027 86.5071 37.64C87.1898 37.256 87.7125 36.7333 88.0751 36.072C88.4591 35.4107 88.6511 34.6853 88.6511 33.896V29.416C88.6511 28.6693 88.3525 28.0507 87.7551 27.56C87.1791 27.048 86.4111 26.792 85.4511 26.792C84.5551 26.792 83.7551 27.0373 83.0511 27.528C82.3685 27.9973 81.8671 28.6267 81.5471 29.416L78.1231 27.752C78.4645 26.8347 78.9978 26.0453 79.7231 25.384C80.4698 24.7013 81.3445 24.168 82.3471 23.784C83.3498 23.4 84.4378 23.208 85.6111 23.208C87.0405 23.208 88.2991 23.4747 89.3871 24.008C90.4751 24.52 91.3178 25.2453 91.9151 26.184C92.5338 27.1013 92.8431 28.1787 92.8431 29.416V41H88.8751V38.024L89.7711 37.96C89.3231 38.7067 88.7898 39.336 88.1711 39.848C87.5525 40.3387 86.8485 40.7227 86.0591 41C85.2698 41.256 84.3951 41.384 83.4351 41.384Z" fill="black"/>
</svg>
